<?xml version="1.0" encoding="utf-8"?>
<svg xmlns="http://www.w3.org/2000/svg" width="1024" height="1024" viewBox="0 0 1024 1024">
  <defs>
    <linearGradient id="gradient_0" gradientUnits="userSpaceOnUse" x1="654.29736" y1="450.93488" x2="548.99445" y2="590.16821" gradientTransform="matrix(2.426244, 0, 0, 2.426244, -735.180898, -671.546758)">
      <stop offset="0" stop-color="#24A282"/>
      <stop offset="1" stop-color="#56D0AB"/>
    </linearGradient>
    <linearGradient id="gradient-1" gradientUnits="userSpaceOnUse" x1="616.75403" y1="494.79877" x2="552.89203" y2="635.59564" gradientTransform="matrix(2.426244, 0, 0, 2.426244, -734.944522, -545.682653)">
      <stop offset="0" stop-color="#159176"/>
      <stop offset="1" stop-color="#5ED9B2"/>
    </linearGradient>
    <linearGradient gradientUnits="userSpaceOnUse" x1="518.742" y1="301.955" x2="518.742" y2="530.984" id="gradient-0" gradientTransform="matrix(2.426244, 0, 0, 2.426244, -735.180898, -671.546758)">
      <stop offset="0" style="stop-color: rgb(29.02%,46.667%,92.157%)"/>
      <stop offset="1" style="stop-color: rgb(0%,27.772%,68.049%)"/>
    </linearGradient>
  </defs>
  <path fill="url(#gradient_0)" d="M 897.152 463.602 L 934.596 486.07 C 958.197 500.149 984.385 513.938 992.71 542.691 C 997.4 559.515 994.968 577.529 985.985 592.507 C 973.29 614.029 941.487 630.831 920.315 643.409 L 857.558 680.807 C 822.135 702.156 778.768 731.476 743.122 750.026 C 733.105 755.22 722.53 759.263 711.603 762.071 C 657.027 776.227 623.04 753.973 579.283 727.622 L 512.054 687.293 C 483.848 670.496 455.743 653.537 427.736 636.41 C 444.626 622.26 477.073 604.88 497.392 589.877 L 597.975 649.623 C 623.045 664.379 643.91 682.492 674.132 683.401 C 685.198 683.678 696.203 681.677 706.462 677.52 C 716.426 673.449 747.909 654.399 758.592 647.609 C 793.26 625.564 837.853 604.408 868.061 577.163 C 904.079 544.681 896.301 506.972 897.152 463.602 Z" style=""/>
  <defs>
    <linearGradient id="gradient_1" gradientUnits="userSpaceOnUse" x1="403.56107" y1="434.01401" x2="555.18567" y2="417.51611" gradientTransform="matrix(2.426244, 0, 0, 2.426244, -735.180898, -671.546758)">
      <stop offset="0" stop-color="#4265ED"/>
      <stop offset="1" stop-color="#5D98F7"/>
    </linearGradient>
  </defs>
  <path fill="url(#gradient_1)" d="M 304.144 128.295 C 339.604 124.186 387.086 160.989 417.257 178.924 C 447.892 196.942 478.431 215.11 508.881 233.432 C 544.002 254.504 573.688 268.293 597.238 303.515 C 623.29 342.468 616.259 385.677 616.29 430.404 L 616.203 592.112 C 606.796 587.415 545.503 552.143 542.806 547.35 L 542.553 432.452 C 542.418 372.849 548.749 341.379 489.771 308.234 C 469.946 297.092 449.372 283.454 429.217 272.378 C 407.407 260.397 385.652 245.023 363.377 234.049 C 358.038 231.397 352.405 229.381 346.595 228.048 C 314.528 220.357 294.765 234.624 269.111 250.277 L 230.03 274.179 C 229.56 262.205 229.807 248.86 229.752 236.84 C 229.627 208.913 228.365 183.479 245.905 159.874 C 260.962 139.611 280.036 131.986 304.144 128.295 Z" style=""/>
  <path fill="#FA525A" d="M 493.18 446.784 L 494.701 448.298 C 496.193 467.107 495.058 499.165 494.963 518.923 C 470.189 534.612 445.175 549.919 419.934 564.843 C 397.593 578.269 373.581 591.67 353.722 608.62 C 342.981 617.789 333.592 628.314 326.269 640.418 C 320.202 650.448 315.409 661.487 313.553 673.119 C 310.338 693.24 310.12 851.794 314.391 867.798 C 322.973 899.978 351.844 914.474 378.518 929.381 L 420.866 953.171 C 405.131 964.84 359.189 992.204 342.394 999.616 C 329.455 1004.75 315.268 1006.38 301.594 1003.36 C 281.25 998.93 263.59 986.4 252.689 968.659 C 245.795 957.64 241.373 945.256 239.728 932.36 C 237.507 914.952 238.839 858.746 238.798 837.506 L 238.442 730.283 C 238.432 703.53 237.212 673.095 242.884 647.122 C 258.053 577.655 333.232 543.436 389.624 509.61 C 424.265 488.873 458.786 467.932 493.18 446.784 Z" style=""/>
  <defs>
    <linearGradient id="gradient_2" gradientUnits="userSpaceOnUse" x1="451.39944" y1="554.71606" x2="359.53226" y2="515.05823" gradientTransform="matrix(2.426244, 0, 0, 2.426244, -735.180898, -671.546758)">
      <stop offset="0" stop-color="#F32832"/>
      <stop offset="1" stop-color="#FE747B"/>
    </linearGradient>
  </defs>
  <path fill="url(#gradient_2)" d="M 435.7 357.358 C 453.445 368.344 471.298 379.16 489.255 389.803 C 469.662 403.313 444.992 417.434 424.441 429.925 L 316.327 496.003 C 297.355 507.66 269.84 523.752 252.511 536.778 C 219.443 561.769 197.61 598.827 191.777 639.865 C 189.622 655.485 190.315 675.037 190.382 691.199 L 190.737 763.412 L 190.913 847.275 C 191.074 901.567 186.275 917.63 220.667 962.446 L 220.009 963.509 L 217.72 962.291 C 184.86 940.624 154.593 933.549 138.881 896.898 C 134.094 885.675 131.143 873.755 130.141 861.596 C 129.054 849.545 129.644 830.869 129.7 818.414 L 129.828 746.558 L 129.749 661.172 C 129.702 627.685 127.801 598.76 140.557 566.863 C 148.853 546.165 161.842 527.678 178.504 512.855 C 191.506 501.201 207.895 491.821 222.804 482.608 C 243.864 469.571 265.028 456.71 286.298 444.023 C 327.851 418.764 392.547 375.891 435.7 357.358 Z" style=""/>
  <path d="M 320.269 109.527 C 339.186 95.433 369.701 78.355 390.635 67.196 C 422.748 50.082 453.262 72.583 480.508 88.775 L 547.212 128.386 L 600.212 159.91 C 606.282 163.525 622.681 172.798 627.502 176.762 C 657.694 192.875 681.633 206.908 701.635 235.823 C 729.061 275.474 726.31 311.582 726.239 357.58 L 726.027 427.345 C 725.876 478.32 726.054 529.296 726.556 580.266 C 705.751 591.754 685.328 603.923 665.324 616.75 L 664.608 431.96 C 664.522 404.645 666.462 344.259 660.911 321.117 C 654.19 294.11 640.14 269.486 620.312 249.958 C 608.055 237.892 595.361 229.931 581.086 220.556 C 576.667 219.358 554.763 204.987 548.978 201.554 L 451.772 143.491 C 433.41 132.522 414.277 120.624 395.385 110.717 C 366.668 95.664 349.138 99.897 320.269 109.527 Z" style="fill: url(&quot;#gradient-0&quot;);"/>
  <defs>
    <linearGradient id="gradient_4" gradientUnits="userSpaceOnUse" x1="544.71625" y1="404.47662" x2="626.64935" y2="338.36853" gradientTransform="matrix(2.426244, 0, 0, 2.426244, -735.180898, -671.546758)">
      <stop offset="0" stop-color="#253CD5"/>
      <stop offset="1" stop-color="#588FF6"/>
    </linearGradient>
  </defs>
  <path fill="url(#gradient_4)" d="M 424.437 42.953 C 466.518 19.573 496.461 -1.974 549.042 11.091 C 570.751 16.486 598.921 35.081 619.115 47.072 L 684.101 85.771 C 716.804 105.196 754.278 124.798 783.816 147.461 C 805.799 164.323 833.54 211.562 834.67 239.626 C 837.736 316.024 835.483 395.039 835.732 471.694 C 835.752 477.745 834.211 484.5 832.625 490.241 C 823.479 523.993 801.825 534.457 773.919 551.086 L 773.867 398.722 L 773.759 320.809 C 773.561 287.48 774.117 272.276 763.481 239.86 C 747.996 205.13 732.652 187.945 702.121 165.041 C 660.949 139.949 619.55 115.235 577.929 90.902 C 560.365 80.55 541.241 69.576 524.032 58.962 C 488.274 36.906 471.71 31.703 430.774 41.39 C 428.656 41.892 426.546 42.411 424.437 42.953 Z" style=""/>
  <path fill="#4A77EB" d="M 702.121 165.041 L 703.819 164.199 C 715.997 171.25 718.156 178.779 730.443 179.582 C 733.38 179.776 737.42 181.765 739.626 184.133 C 739.598 185.254 739.271 195.26 739.633 195.729 C 746.8 205.05 764.296 227.738 763.481 239.86 C 747.996 205.13 732.652 187.945 702.121 165.041 Z" style=""/>
  <defs>
    <linearGradient id="gradient_5" gradientUnits="userSpaceOnUse" x1="413.17361" y1="533.94879" x2="321.45282" y2="477.3873" gradientTransform="matrix(2.426244, 0, 0, 2.426244, -735.180898, -671.546758)">
      <stop offset="0" stop-color="#F2242E"/>
      <stop offset="1" stop-color="#FD7178"/>
    </linearGradient>
  </defs>
  <path fill="url(#gradient_5)" d="M 318.421 310.141 C 361.021 305.805 381.951 323.106 416.394 345.488 C 396.526 339.532 381.432 334.551 361.218 343.678 C 329.477 358.013 298.671 379.345 268.72 397.41 C 241.858 413.419 215.106 429.611 188.468 445.988 C 142.435 474.314 113.721 490.442 91.826 542.992 C 86.896 554.759 83.789 567.213 82.616 579.919 C 81 596.088 81.517 615.073 81.549 631.596 L 81.56 703.405 C 81.56 747.915 80.787 794.376 82.948 838.856 C 83.491 850.053 86.732 860.772 90.933 871.115 C 96.76 882.871 101.906 888.749 110.569 898.504 C 64.85 873.691 35.352 857.616 24.825 802.006 C 21.741 785.721 22.841 767.605 22.865 751.047 L 22.923 682.521 L 22.925 597.675 C 22.932 579.104 22.159 554.098 25.075 536.353 C 28.508 515.457 36.52 495.578 48.535 478.141 C 74.631 440.421 122.001 419.132 160.678 395.435 L 234.288 350.971 C 261.821 334.204 286.127 316.205 318.421 310.141 Z" style=""/>
  <defs>
    <linearGradient id="gradient_6" gradientUnits="userSpaceOnUse" x1="616.75403" y1="494.79877" x2="552.89203" y2="635.59564" gradientTransform="matrix(2.426244, 0, 0, 2.426244, -735.180898, -671.546758)">
      <stop offset="0" stop-color="#159176"/>
      <stop offset="1" stop-color="#5ED9B2"/>
    </linearGradient>
  </defs>
  <path fill="url(#gradient_6)" d="M 994.093 613.746 C 994.845 625.21 995.578 677.617 993.717 687.426 C 991.415 732.258 943.494 756.604 910.069 777.107 C 884.123 793.111 858.075 808.949 831.927 824.618 C 798.641 844.548 749.344 879.801 713.935 888.608 C 689.465 894.681 663.815 894.081 639.657 886.873 C 613.272 878.83 560.809 845.501 534.382 829.89 L 386.78 742.31 L 386.93 672.022 C 413.204 685.985 441.321 704.955 467.192 720.242 C 493.949 736.849 522.953 752.765 549.852 768.802 C 595.727 796.154 635.375 825.988 691.902 821.231 C 717.154 819.518 745.231 811.177 766.929 797.729 C 817.787 766.204 868.559 734.221 920.192 703.922 C 936.457 694.38 953.996 684.864 967.959 672.146 C 980.062 661.121 987.384 648.191 991.626 632.513 C 992.343 626.132 992.967 620.083 994.093 613.746 Z" style=""/>
  <path fill="#24687C" d="M 994.093 613.746 C 994.845 625.21 995.578 677.617 993.717 687.426 C 993.244 675.879 995.847 639.026 991.626 632.513 C 992.343 626.132 992.967 620.083 994.093 613.746 Z" style=""/>
  <defs>
    <linearGradient id="gradient_7" gradientUnits="userSpaceOnUse" x1="709.68677" y1="644.96234" x2="579.80487" y2="639.34259" gradientTransform="matrix(2.426244, 0, 0, 2.426244, -735.180898, -671.546758)">
      <stop offset="0" stop-color="#209E7D"/>
      <stop offset="1" stop-color="#55CEAC"/>
    </linearGradient>
  </defs>
  <path fill="url(#gradient_7)" d="M 994.381 743.171 C 996.316 864.033 967.716 865.53 873.874 923.616 C 845.361 941.316 816.749 958.856 788.038 976.232 C 748.545 1000.32 706.593 1029.44 657.254 1017.17 C 660.151 1016.62 639.2 1009.07 643.104 1008.79 C 646.208 1002.87 651.572 978.003 656.064 967.041 L 660.158 946.045 C 727.565 949.917 749.311 932.162 804.725 898.466 L 886.248 848.738 C 903.591 838.082 921.91 826.484 939.359 816.192 C 974.005 795.753 985.414 781.642 994.381 743.171 Z" style=""/>
  <path fill="#58D5AE" d="M 387.163 797.889 C 401.905 805.681 420.02 817.004 434.623 825.589 L 554.892 897.638 C 593.07 920.299 615.622 937.249 660.158 946.045 L 661.105 977.126 C 661.096 991.515 660.012 1019.97 659.81 1017.64 C 638.774 1015.75 554.115 966.239 525.796 949.124 L 386.962 866.45 C 386.908 843.594 386.976 820.741 387.163 797.889 Z" style=""/>
  <path fill="url(#gradient-1)" d="M 994.326 739.613 C 995.078 751.076 995.811 803.483 993.95 813.293 C 991.648 858.125 943.726 882.469 910.303 902.974 C 884.356 918.977 858.308 934.816 832.161 950.484 C 798.875 970.414 749.576 1005.67 714.168 1014.48 C 689.699 1020.55 664.048 1019.95 639.891 1012.75 C 613.504 1004.7 561.042 971.367 534.615 955.757 L 387.013 868.177 L 387.163 797.889 C 413.438 811.851 441.555 830.823 467.425 846.107 C 494.183 862.715 523.186 878.631 550.085 894.669 C 595.961 922.02 635.608 951.856 692.134 947.098 C 717.387 945.385 745.463 937.042 767.162 923.594 C 818.02 892.071 868.792 860.088 920.425 829.788 C 936.69 820.246 954.229 810.73 968.192 798.012 C 980.294 786.988 987.617 774.058 991.859 758.38 C 992.576 751.998 993.2 745.95 994.326 739.613 Z" style="stroke-width: 1;"/>
</svg>